<svg xmlns="http://www.w3.org/2000/svg" width="1400" height="330" viewBox="0 0 1400 330">
  <defs>
    <linearGradient id="bg" x1="0" x2="1">
      <stop offset="0%" stop-color="#0f2f6f"/>
      <stop offset="100%" stop-color="#183a7a"/>
    </linearGradient>
    <linearGradient id="green" x1="0" x2="1">
      <stop offset="0%" stop-color="#00c853"/>
      <stop offset="100%" stop-color="#00e676"/>
    </linearGradient>
  </defs>
  <rect width="100%" height="100%" fill="url(#bg)" rx="6"/>
  <g fill="none" stroke="#fff59d" stroke-width="6" stroke-linejoin="round">
    <rect x="12" y="12" width="1376" height="306" rx="4" opacity="0.95"/>
  </g>
  <g fill="#ffffff" font-family="Arial, Helvetica, sans-serif" font-weight="700">
    <text x="80" y="95" font-size="26">INDICADOR</text>
    <text x="520" y="95" font-size="26">ANTES (MS)</text>
    <text x="880" y="95" font-size="26">DEPOIS (MS)</text>
    <text x="1160" y="95" font-size="26">MELHORIA (%)</text>

    <text x="95" y="160" font-size="28">DURAÇÃO TOTAL</text>
    <rect x="500" y="140" width="280" height="38" rx="4" fill="#153e7a" opacity="0.6"/>
    <rect x="860" y="140" width="200" height="38" rx="4" fill="#153e7a" opacity="0.6"/>
    <rect x="1080" y="140" width="220" height="38" rx="4" fill="url(#green)"/>

    <text x="95" y="210" font-size="28">TEMPO CPU</text>
    <rect x="500" y="190" width="280" height="38" rx="4" fill="#153e7a" opacity="0.6"/>
    <rect x="860" y="190" width="200" height="38" rx="4" fill="#153e7a" opacity="0.6"/>
    <rect x="1080" y="190" width="220" height="38" rx="4" fill="url(#green)"/>

    <text x="95" y="260" font-size="28">LEITURAS LÓGICAS</text>
    <rect x="500" y="240" width="280" height="38" rx="4" fill="#153e7a" opacity="0.6"/>
    <rect x="860" y="240" width="200" height="38" rx="4" fill="#153e7a" opacity="0.6"/>
    <rect x="1080" y="240" width="220" height="38" rx="4" fill="url(#green)"/>
  </g>
</svg>
